<svg width="200" height="54" viewBox="0 0 200 54" fill="none" xmlns="http://www.w3.org/2000/svg">
<path d="M149.547 22.7193C149.404 22.5743 149.234 22.459 149.046 22.3801C148.859 22.3013 148.657 22.2605 148.454 22.26H148.402C147.991 22.2594 147.597 22.4216 147.305 22.711C147.013 23.0004 146.848 23.3936 146.845 23.8045V25.4067H140.691C140.313 25.4214 139.942 25.5183 139.605 25.6909C138.736 26.1053 137.382 27.214 137.369 30.0959L137.333 39.0213C137.332 39.432 137.494 39.8263 137.784 40.1178C138.073 40.4093 138.466 40.5742 138.877 40.5765H138.93C139.341 40.577 139.735 40.4148 140.027 40.1254C140.318 39.8359 140.483 39.4427 140.486 39.0319C140.503 33.3174 140.509 29.4294 140.505 29.0427C140.501 28.656 140.817 27.5473 141.808 27.5088H146.834L146.779 42.341C146.778 42.752 146.94 43.1466 147.229 43.4382C147.519 43.7298 147.912 43.8945 148.323 43.8962H148.375C148.785 43.8974 149.18 43.7357 149.472 43.4466C149.764 43.1576 149.929 42.7646 149.932 42.3538L149.987 28.4403H150.007V23.8109C150.006 23.6077 149.965 23.4065 149.886 23.2192C149.807 23.0318 149.692 22.8619 149.547 22.7193V22.7193Z" fill="#643510"/>
<path d="M159.532 30.051C159.491 25.8383 156.755 25.4196 156.327 25.4196H155.565C155.525 25.4129 155.484 25.4086 155.443 25.4067H152.121C151.841 25.4067 151.572 25.518 151.374 25.7161C151.176 25.9143 151.065 26.183 151.065 26.4631C151.065 26.7433 151.176 27.012 151.374 27.2101C151.572 27.4082 151.841 27.5195 152.121 27.5195H155.426C155.634 27.5591 155.825 27.6612 155.973 27.8122C156.377 28.2266 156.4 28.9145 156.385 29.1153L156.353 37.5045H154.824C154.413 37.5073 154.02 37.6731 153.731 37.9655C153.442 38.2579 153.281 38.653 153.283 39.064V39.1174C153.284 39.3208 153.326 39.522 153.405 39.7094C153.484 39.8968 153.6 40.0666 153.745 40.209C154.038 40.4958 154.432 40.6567 154.843 40.6576H157.945C158.355 40.6576 158.748 40.4955 159.039 40.2065C159.33 39.9176 159.495 39.5253 159.498 39.1152L159.536 30.1065C159.537 30.0959 159.537 30.0852 159.536 30.0745L159.532 30.051Z" fill="#FF7175"/>
<path d="M190.122 39.7348C189.994 39.577 189.836 39.4461 189.657 39.3497C189.478 39.2533 189.282 39.1932 189.08 39.173C189.025 39.1702 188.97 39.1702 188.915 39.173C188.623 39.1746 188.337 39.2588 188.091 39.4158C187.844 39.5728 187.647 39.7962 187.522 40.0603C187.397 40.3244 187.349 40.6185 187.384 40.9086C187.419 41.1987 187.535 41.4731 187.719 41.7002L189.013 43.2789C189.275 43.5959 189.652 43.7959 190.061 43.835C190.471 43.874 190.879 43.7489 191.196 43.4872C191.513 43.2254 191.713 42.8485 191.752 42.4392C191.791 42.03 191.666 41.622 191.404 41.305L190.122 39.7348Z" fill="#FF7175"/>
<path d="M127.446 40.1492L125.65 38.2074C125.35 37.8954 124.939 37.7148 124.507 37.7053H124.464C124.041 37.7042 123.634 37.8703 123.332 38.1675C123.03 38.4648 122.858 38.8691 122.853 39.2926C122.849 39.5075 122.887 39.7212 122.966 39.9213C123.044 40.1215 123.161 40.3042 123.31 40.459L124.199 41.3797L125.694 42.9584C125.824 43.0948 125.98 43.2032 126.153 43.2767C126.326 43.3502 126.513 43.3873 126.701 43.3857C126.911 43.3826 127.118 43.3363 127.309 43.2495C127.5 43.1628 127.671 43.0375 127.811 42.8815L127.848 42.8431C128.13 42.5394 128.289 42.142 128.295 41.7277C128.301 41.3134 128.153 40.9116 127.88 40.6L127.446 40.1492Z" fill="#FF7175"/>
<path d="M127.722 17.7183H123.366L121.55 14.2084C121.292 13.6743 120.997 13.388 120.67 13.3539C120.166 13.3026 119.728 13.8708 119.728 13.8708L117.758 17.7161H114.338C114.058 17.7161 113.789 17.8274 113.591 18.0255C113.393 18.2237 113.282 18.4924 113.282 18.7725C113.282 19.0527 113.393 19.3214 113.591 19.5195C113.789 19.7176 114.058 19.8289 114.338 19.8289H117.705L115.607 22.6061C114.396 24.5287 115.503 26.0092 115.921 26.571L116.052 26.7462C116.265 27.0389 116.4 27.214 116.479 27.3144L116.562 27.4084H116.549L116.953 27.9382L118.416 29.8331L113.099 35.0008C112.898 35.1959 112.783 35.4629 112.779 35.743C112.775 36.023 112.883 36.2932 113.078 36.494C113.273 36.6949 113.54 36.81 113.82 36.814C114.1 36.818 114.37 36.7106 114.571 36.5154L126.31 25.1119C126.51 24.9167 126.626 24.6498 126.63 24.3697C126.634 24.0897 126.526 23.8195 126.331 23.6187C126.234 23.5192 126.119 23.4398 125.992 23.3849C125.864 23.33 125.727 23.3007 125.589 23.2987C125.309 23.2947 125.039 23.4021 124.838 23.5973L120.779 27.5345L120.13 26.7035C119.916 26.4471 119.546 25.9857 119.243 25.6054C119.029 25.3469 118.863 25.1247 118.803 25.0372C118.709 24.9182 118.646 24.7783 118.618 24.6295C118.59 24.4808 118.599 24.3275 118.643 24.1826C118.742 23.9247 118.887 23.6866 119.07 23.4798L122.15 19.8311H127.72C128 19.8311 128.268 19.7198 128.466 19.5216C128.665 19.3235 128.776 19.0548 128.776 18.7747C128.776 18.4945 128.665 18.2258 128.466 18.0277C128.268 17.8296 128 17.7183 127.72 17.7183H127.722Z" fill="#643510"/>
<path d="M159.536 17.7183H151.418L149.993 14.9796L149.592 14.2084C149.333 13.6743 149.039 13.388 148.712 13.3539C148.205 13.3069 147.77 13.8708 147.765 13.8751L147.206 14.9625C147.151 15.0462 147.105 15.1349 147.067 15.2274C147.043 15.2765 147.009 15.3235 146.992 15.3726L145.783 17.7225H137.328C137.048 17.7225 136.779 17.8338 136.581 18.032C136.383 18.2301 136.271 18.4988 136.271 18.7789C136.271 19.0591 136.383 19.3278 136.581 19.5259C136.779 19.724 137.048 19.8353 137.328 19.8353H159.544C159.825 19.8353 160.093 19.724 160.291 19.5259C160.489 19.3278 160.601 19.0591 160.601 18.7789C160.601 18.4988 160.489 18.2301 160.291 18.032C160.093 17.8338 159.825 17.7225 159.544 17.7225L159.536 17.7183Z" fill="#643510"/>
<path d="M177.519 35.7913H169.948C169.668 35.7913 169.399 35.9026 169.201 36.1007C169.003 36.2988 168.892 36.5675 168.892 36.8477C168.892 37.1278 169.003 37.3965 169.201 37.5946C169.399 37.7927 169.668 37.904 169.948 37.904H172.877L170.119 41.3947C169.883 41.7208 169.783 42.1257 169.841 42.5239C169.898 42.9222 170.108 43.2825 170.426 43.529C170.744 43.7755 171.145 43.8887 171.545 43.8448C171.945 43.801 172.312 43.6034 172.569 43.2939L176.803 37.904H177.519C177.799 37.904 178.068 37.7927 178.266 37.5946C178.464 37.3965 178.575 37.1278 178.575 36.8477C178.575 36.5675 178.464 36.2988 178.266 36.1007C178.068 35.9026 177.799 35.7913 177.519 35.7913V35.7913Z" fill="#643510"/>
<path d="M191.015 35.7913H183.436C183.396 35.7933 183.357 35.7976 183.318 35.8041V35.1632C183.31 34.753 183.139 34.3629 182.843 34.0786C182.547 33.7944 182.151 33.6393 181.741 33.6475C181.33 33.6557 180.94 33.8266 180.656 34.1224C180.372 34.4183 180.217 34.815 180.225 35.2252V35.4623H180.21V38.3804V38.5001V42.6274C180.21 43.0384 180.373 43.4326 180.664 43.7233C180.955 44.0139 181.349 44.1772 181.76 44.1772C182.171 44.1772 182.565 44.0139 182.856 43.7233C183.146 43.4326 183.31 43.0384 183.31 42.6274V38.7137V37.8955C183.348 37.902 183.388 37.9063 183.427 37.9083H191.008C191.289 37.9083 191.557 37.797 191.755 37.5989C191.954 37.4008 192.065 37.1321 192.065 36.8519C192.065 36.5718 191.954 36.3031 191.755 36.105C191.557 35.9069 191.289 35.7956 191.008 35.7956L191.015 35.7913Z" fill="#643510"/>
<path d="M80.46 33.2191C80.46 33.499 80.5711 33.7674 80.7691 33.9653C80.967 34.1632 81.2354 34.2744 81.5152 34.2744H90.8312C90.97 34.2744 91.1073 34.2471 91.2355 34.194C91.3637 34.1409 91.4801 34.0631 91.5782 33.965C91.6763 33.8669 91.7541 33.7504 91.8072 33.6223C91.8603 33.4941 91.8876 33.3567 91.8876 33.218C91.8876 33.0793 91.8603 32.9419 91.8072 32.8137C91.7541 32.6856 91.6763 32.5691 91.5782 32.471C91.4801 32.3729 91.3637 32.2951 91.2355 32.242C91.1073 32.1889 90.97 32.1616 90.8312 32.1616H81.5152C81.3765 32.1616 81.2391 32.189 81.1109 32.2422C80.9827 32.2953 80.8663 32.3732 80.7683 32.4715C80.6703 32.5697 80.5926 32.6863 80.5397 32.8146C80.4868 32.9429 80.4597 33.0803 80.46 33.2191Z" fill="#FF7175"/>
<path d="M127.901 29.6942C127.804 29.5944 127.689 29.5146 127.561 29.4594C127.434 29.4043 127.297 29.3749 127.158 29.3729C127.019 29.3709 126.881 29.3964 126.752 29.4479C126.623 29.4993 126.505 29.5758 126.406 29.6728L114.667 41.0763C114.466 41.2715 114.351 41.5385 114.347 41.8185C114.343 42.0985 114.451 42.3687 114.646 42.5696C114.841 42.7704 115.108 42.8855 115.388 42.8895C115.668 42.8935 115.938 42.7861 116.139 42.5909L127.88 31.1896C127.979 31.093 128.059 30.9776 128.114 30.85C128.17 30.7225 128.199 30.5853 128.201 30.4463C128.203 30.3074 128.177 30.1694 128.126 30.0404C128.075 29.9113 127.998 29.7937 127.901 29.6942V29.6942Z" fill="#643510"/>
<path d="M92.0191 41.1019C91.9999 41.04 91.9785 40.978 91.9529 40.914L90.575 38.2821C90.2952 37.7053 89.9769 37.3976 89.6223 37.3613C89.0775 37.3058 88.6012 37.921 88.5969 37.9274L87.2489 40.5401H87.1784C85.5763 40.5956 82.78 40.664 82.0516 40.5252H82.0131C81.4875 40.4867 80.9827 40.3041 80.5541 39.9975C79.8641 39.5147 79.0245 38.4807 78.9455 36.2975V35.6566H78.9647L78.9797 27.966H78.9968V27.0965H88.9066C89.1868 27.0965 89.4555 26.9852 89.6536 26.7871C89.8517 26.589 89.963 26.3203 89.963 26.0401C89.963 25.7599 89.8517 25.4912 89.6536 25.2931C89.4555 25.095 89.1868 24.9837 88.9066 24.9837H79.0181L79.0395 19.1688L87.7979 18.1583C87.9388 18.1461 88.0759 18.1057 88.2009 18.0396C88.3259 17.9734 88.4364 17.8829 88.5258 17.7733C88.6152 17.6637 88.6817 17.5373 88.7214 17.4016C88.7611 17.2658 88.7731 17.1235 88.7568 16.983C88.7406 16.8425 88.6962 16.7067 88.6265 16.5837C88.5568 16.4606 88.4632 16.3528 88.351 16.2665C88.2389 16.1803 88.1107 16.1175 87.9738 16.0817C87.837 16.046 87.6944 16.038 87.5544 16.0584L71.2317 17.9447C70.9577 17.9679 70.7035 18.0972 70.5234 18.3049C70.3433 18.5127 70.2514 18.7826 70.2672 19.0571C70.2831 19.3317 70.4055 19.5892 70.6084 19.7748C70.8113 19.9605 71.0786 20.0596 71.3534 20.0511C71.3947 20.0532 71.4361 20.0532 71.4773 20.0511L75.848 19.5426V24.973H70.1401C69.8599 24.973 69.5912 25.0843 69.3931 25.2825C69.195 25.4806 69.0837 25.7493 69.0837 26.0294C69.0837 26.3096 69.195 26.5783 69.3931 26.7764C69.5912 26.9745 69.8599 27.0858 70.1401 27.0858H75.8459V27.9553V32.168H68.6618C68.3817 32.168 68.113 32.2793 67.9149 32.4774C67.7168 32.6755 67.6055 32.9442 67.6055 33.2244C67.6055 33.5046 67.7168 33.7733 67.9149 33.9714C68.113 34.1695 68.3817 34.2808 68.6618 34.2808H75.848V35.6544V36.3167C75.8321 37.622 76.1295 38.9121 76.7153 40.0787C77.1699 40.9613 77.8292 41.7224 78.6379 42.2983C79.7078 43.028 80.9427 43.4795 82.231 43.6121H82.2524C82.2524 43.6121 84.1899 43.6783 86.2214 43.6612C88.5712 43.6398 90.1499 43.5159 90.9446 43.2916L91.0108 43.2745C91.2094 43.23 91.3965 43.1444 91.5602 43.0234C91.7239 42.9024 91.8606 42.7485 91.9614 42.5717C92.1555 42.1331 92.1903 41.6404 92.0597 41.1789L92.0191 41.1019Z" fill="#643510"/>
<path d="M110.6 31.0679C110.576 30.9013 110.548 30.7347 110.516 30.5702L113.36 29.4251C113.488 29.3734 113.606 29.2968 113.705 29.1998C113.804 29.1027 113.883 28.9871 113.937 28.8596C113.991 28.732 114.02 28.595 114.021 28.4564C114.023 28.3177 113.997 28.1801 113.945 28.0515C113.893 27.9229 113.817 27.8057 113.72 27.7067C113.623 27.6077 113.507 27.5287 113.38 27.4744C113.252 27.42 113.115 27.3913 112.976 27.3899C112.838 27.3885 112.7 27.4144 112.571 27.4662L109.923 28.5343C109.835 28.3036 109.775 28.169 109.775 28.169L109.728 28.0686C109.538 27.6542 109.359 27.3124 109.151 26.9172C108.974 26.5775 108.773 26.193 108.511 25.6482C108.211 25.0671 108.399 24.7082 108.423 24.6677L111.454 19.5256C111.602 19.2778 111.632 18.6903 111.632 18.5045C111.629 18.3065 111.586 18.111 111.507 17.9295C111.428 17.7479 111.313 17.584 111.17 17.447C110.918 17.2 110.588 17.0488 110.237 17.0198H109.985H102.508C102.107 17.0248 101.724 17.1887 101.444 17.4754C101.164 17.7622 101.008 18.1484 101.012 18.5494C101.014 18.7478 101.056 18.9439 101.134 19.1262C101.213 19.3085 101.327 19.4733 101.47 19.6111C101.756 19.888 102.139 20.0415 102.538 20.0383L107.665 20.0704L105.678 23.4179C105.556 23.6293 105.451 23.85 105.364 24.078C105.003 24.9475 105.112 25.8191 105.695 26.7612C105.731 26.8317 106.466 28.2758 106.913 29.1261L106.975 29.2436C106.975 29.2436 107.039 29.4059 107.133 29.6537L101.038 32.1062C100.909 32.1579 100.792 32.2345 100.693 32.3316C100.594 32.4286 100.515 32.5442 100.461 32.6718C100.407 32.7993 100.378 32.9363 100.377 33.075C100.375 33.2136 100.401 33.3512 100.453 33.4798C100.505 33.6084 100.581 33.7256 100.678 33.8246C100.775 33.9237 100.891 34.0026 101.018 34.057C101.146 34.1113 101.283 34.14 101.422 34.1414C101.56 34.1428 101.698 34.1169 101.826 34.0651L107.767 31.6746C107.801 31.8247 107.826 31.9767 107.842 32.1297L107.859 32.2813C108.087 34.4105 107.934 36.5632 107.408 38.6389L107.175 39.4464C106.748 40.5338 106.135 40.5338 105.806 40.5338C105.127 40.5338 104.819 40.3864 104.633 39.9698L104.618 39.942C104.559 39.8459 104.354 39.3823 104.328 39.3247C104.246 39.139 104.129 38.9714 103.982 38.8313C103.835 38.6912 103.663 38.5816 103.473 38.5086C103.302 38.4441 103.119 38.4145 102.935 38.4215C102.752 38.4284 102.572 38.4718 102.405 38.5492C102.054 38.7233 101.786 39.0294 101.66 39.4005C101.534 39.7716 101.56 40.1775 101.732 40.5295L101.818 40.7431C101.991 41.2868 102.285 41.7839 102.679 42.1966C103.073 42.6094 103.556 42.9269 104.091 43.1251C104.569 43.3057 105.075 43.4025 105.586 43.4114H105.654C107.455 43.2746 108.523 42.4671 109.102 41.8134C109.477 41.3978 109.763 40.91 109.942 40.38C110.01 40.1236 110.239 39.2542 110.301 38.9465C110.704 37.2375 111.08 33.5738 110.602 31.1683L110.6 31.0679Z" fill="#643510"/>
<path d="M170.179 24.5671L170.907 23.5118V23.8963C170.884 27.6284 170.89 29.7369 170.926 30.1663L170.937 30.2945C170.934 30.6112 170.995 30.9253 171.114 31.2187C171.234 31.512 171.41 31.7787 171.633 32.0035C172.488 32.8388 173.804 32.8025 173.817 32.8132L182.789 32.826H182.921H189.415C189.441 32.8292 189.468 32.8292 189.494 32.826H189.776C190.056 32.826 190.325 32.7147 190.523 32.5166C190.721 32.3185 190.833 32.0498 190.833 31.7696C190.833 31.4894 190.721 31.2207 190.523 31.0226C190.325 30.8245 190.056 30.7132 189.776 30.7132H189.437C189.395 30.688 189.346 30.6768 189.298 30.6812H183.316V29.2776H183.331V28.2843H188.627C188.907 28.2843 189.176 28.173 189.374 27.9749C189.572 27.7767 189.683 27.508 189.683 27.2279C189.683 26.9477 189.572 26.679 189.374 26.4809C189.176 26.2828 188.907 26.1715 188.627 26.1715H183.325V24.1847H188.627C188.907 24.1847 189.176 24.0734 189.374 23.8753C189.572 23.6772 189.683 23.4085 189.683 23.1284C189.683 22.8482 189.572 22.5795 189.374 22.3814C189.176 22.1833 188.907 22.072 188.627 22.072H183.327V19.5405H189.823C190.103 19.5405 190.372 19.4292 190.57 19.2311C190.768 19.033 190.88 18.7643 190.88 18.4841C190.88 18.2039 190.768 17.9352 190.57 17.7371C190.372 17.539 190.103 17.4277 189.823 17.4277H184.568L182.823 14.0695C182.564 13.5354 182.27 13.2491 181.943 13.215C181.439 13.1615 181.001 13.7319 180.996 13.7362L179.091 17.4234H175.011L175.596 16.3916C175.766 16.1364 175.857 15.8362 175.856 15.5293C175.856 15.2224 175.764 14.9226 175.592 14.6681C175.421 14.4136 175.177 14.2159 174.893 14.1002C174.609 13.9845 174.297 13.9559 173.996 14.0182C173.796 14.0575 173.606 14.1361 173.437 14.2494C173.268 14.3627 173.123 14.5085 173.011 14.6783L167.602 22.841C167.385 23.1835 167.311 23.5975 167.396 23.994C167.481 24.3905 167.718 24.7379 168.056 24.9617C168.394 25.1854 168.806 25.2677 169.205 25.1907C169.603 25.1137 169.955 24.8837 170.185 24.55L170.179 24.5671ZM180.219 19.549V22.0591H176.16C175.88 22.0591 175.611 22.1704 175.413 22.3686C175.215 22.5667 175.104 22.8354 175.104 23.1155C175.104 23.3957 175.215 23.6644 175.413 23.8625C175.611 24.0606 175.88 24.1719 176.16 24.1719H180.219V26.1587H176.16C175.88 26.1587 175.611 26.27 175.413 26.4681C175.215 26.6662 175.104 26.9349 175.104 27.2151C175.104 27.4952 175.215 27.7639 175.413 27.962C175.611 28.1601 175.88 28.2714 176.16 28.2714H180.219V28.8931H180.206V30.6641H174.9C174.447 30.6641 174.154 30.6299 173.992 30.4611C173.829 30.2924 173.778 29.2135 173.797 28.6923V25.8895V25.2123V19.5853L173.812 19.5597L180.219 19.549Z" fill="#643510"/>
<path d="M42.2094 35.5775C41.8115 36.1949 41.2647 36.7022 40.6192 37.0528C39.9737 37.4034 39.2505 37.5858 38.5159 37.5834C38.0736 37.5831 37.6342 37.511 37.215 37.3698C37.0331 37.3185 36.8575 37.2468 36.6916 37.1562C36.4563 37.0343 36.2288 36.898 36.0102 36.7482C35.8436 36.6349 35.6876 36.5132 35.5295 36.3893C35.4206 36.3038 35.3159 36.2162 35.1984 36.135C34.7846 35.8387 34.289 35.6782 33.78 35.6757C33.4516 35.6745 33.1264 35.7397 32.8238 35.8674C32.5213 35.9952 32.2478 36.1829 32.0197 36.4192C31.4772 36.9767 30.5564 37.3057 30.2873 37.3933C29.3983 37.6378 28.455 37.5973 27.5901 37.2777C26.7253 36.9582 25.9823 36.3755 25.4659 35.6117C25.1386 35.0941 24.9299 34.5104 24.8549 33.9026C24.8093 33.2577 24.8611 32.6095 25.0087 31.98C25.1134 31.448 25.436 31.0379 26.0127 31.0721C26.5553 31.1041 27.0296 31.3818 26.9997 31.9266C26.9804 32.2534 26.7476 32.5012 26.6686 32.8089C26.6017 33.1208 26.6017 33.4433 26.6686 33.7552C26.7837 34.3432 27.1011 34.8723 27.5658 35.2506C27.7936 35.4245 28.0524 35.5535 28.3284 35.6309C28.7587 35.7528 29.2129 35.7639 29.6486 35.6629C29.9724 35.5957 30.2786 35.4618 30.5479 35.2698C30.6611 35.1865 30.7615 35.0925 30.8683 35.0007C31.0505 34.8309 31.2471 34.6772 31.4558 34.5414C32.0014 34.2023 32.6132 33.9838 33.2502 33.9005C33.5676 33.8594 33.8885 33.8529 34.2072 33.8813C34.3672 33.8958 34.5263 33.9193 34.6836 33.9518L34.8609 33.9838C35.0743 34.0314 35.283 34.0979 35.4847 34.1825C35.6458 34.2452 35.8033 34.3165 35.9568 34.3961C36.2541 34.5611 36.5291 34.7636 36.7749 34.9985C36.9411 35.1569 37.1213 35.2999 37.3133 35.4258C37.787 35.7098 38.3427 35.8256 38.8904 35.7547C39.4381 35.6838 39.946 35.4301 40.3317 35.0349C40.7417 34.6322 40.985 34.0899 41.0132 33.516C41.0132 32.9798 40.7419 32.4863 40.712 31.9522C40.6821 31.4181 41.1627 31.149 41.7096 31.1191C41.9585 31.1044 42.2037 31.1843 42.3962 31.3428C42.5887 31.5012 42.7143 31.7265 42.7478 31.9736C42.7649 32.1359 42.7798 32.3026 42.7905 32.4713C42.8546 33.5395 42.7691 34.6781 42.2094 35.5775Z" fill="#643510"/>
<path d="M30.0566 30.2924C30.0566 28.6133 31.8404 28.4445 34.0385 28.4488C36.2367 28.4531 38.0247 28.6261 38.0247 30.3074C38.0247 31.9886 36.2495 33.86 34.0535 33.8557C31.8575 33.8515 30.0545 31.9715 30.0566 30.2924Z" fill="#FF7175"/>
<path d="M57.2502 29.0535C55.6609 27.6606 54.2596 23.1531 53.5995 20.9847L53.5632 20.8651C53.5487 20.8176 53.5308 20.7712 53.5098 20.7263C53.1485 19.958 52.5916 19.2982 51.895 18.8131C51.1984 18.3279 50.3865 18.0344 49.5407 17.9619H49.4574H18.2133H18.1299C17.2849 18.0343 16.4738 18.3274 15.7776 18.8118C15.0814 19.2961 14.5247 19.9548 14.163 20.722C14.14 20.7696 14.1207 20.8188 14.1053 20.8694C13.5499 22.7109 12.0759 27.5965 10.414 29.0535L10.3499 29.109C10.0044 29.4153 9.76895 29.8266 9.67981 30.2797C9.59066 30.7328 9.65271 31.2026 9.85642 31.617L9.89701 31.7003C10.8562 33.6422 12.4605 34.7125 14.4386 34.7125H14.5774V37.3422C14.5774 45.0029 19.9179 45.8873 23.9191 45.8873H43.5572C47.5668 45.8873 52.8967 45.0008 52.8967 37.3422V34.7125H53.0419H53.2299C55.1995 34.7125 56.8145 33.6443 57.7736 31.6982C57.9884 31.2609 58.0535 30.7652 57.9589 30.2874C57.8643 29.8095 57.6154 29.376 57.2502 29.0535ZM53.2235 32.4715C52.8533 32.467 52.4843 32.4284 52.1212 32.3562C51.9464 32.3138 51.7642 32.3117 51.5884 32.35C51.4127 32.3883 51.2479 32.466 51.1066 32.5773C50.9652 32.6886 50.851 32.8306 50.7726 32.9925C50.6941 33.1544 50.6534 33.332 50.6536 33.5119V37.338C50.6536 41.9374 48.7311 43.6485 43.5508 43.6485H23.9255C18.7473 43.6485 16.8226 41.9395 16.8226 37.338V33.576C16.8231 33.398 16.7837 33.2222 16.7073 33.0615C16.6309 32.9008 16.5194 32.7592 16.381 32.6473C16.2427 32.5354 16.081 32.456 15.9078 32.4148C15.7347 32.3737 15.5546 32.3719 15.3806 32.4096C15.0653 32.4577 14.7469 32.4827 14.4279 32.4843C13.3235 32.4843 12.469 31.8905 11.8944 30.7262C13.7614 29.0727 15.1243 25.2039 16.2095 21.6128C16.4052 21.2254 16.6948 20.8932 17.0519 20.6465C17.409 20.3998 17.8222 20.2466 18.2538 20.2007H49.4061C49.8391 20.2465 50.2536 20.4004 50.6116 20.6483C50.9696 20.8962 51.2595 21.23 51.4547 21.6192V21.6491C52.5506 25.159 53.8644 29.0535 55.7549 30.7219C55.1824 31.8904 54.3301 32.4843 53.2278 32.4843L53.2235 32.4715Z" fill="#643510" stroke="#643510" stroke-width="0.28" stroke-miterlimit="10"/>
<path d="M46.0033 17.8209C45.3902 11.442 40.1608 6.62256 33.8205 6.62256C27.4803 6.62256 22.2551 11.4335 21.6442 17.8124L21.6313 17.9512H24.1606L24.1756 17.8273C24.7694 12.8733 28.9179 9.13696 33.8269 9.13696C38.7359 9.13696 42.8909 12.8733 43.4804 17.8252L43.4954 17.9491H46.0247L46.0033 17.8209Z" fill="#643510" stroke="#643510" stroke-width="0.28" stroke-miterlimit="10"/>
</svg>
